<mxfile host="Electron" modified="2024-09-29T20:49:54.993Z" agent="Mozilla/5.0 (Windows NT 10.0; Win64; x64) AppleWebKit/537.36 (KHTML, like Gecko) draw.io/24.1.0 Chrome/120.0.6099.109 Electron/28.1.0 Safari/537.36" etag="KbwAOOYFY8c4flbIoJHN" version="24.1.0" type="device">
  <diagram name="Página-1" id="_iD9k_iz02mdRoqzIWhx">
    <mxGraphModel dx="2327" dy="2056" grid="1" gridSize="10" guides="1" tooltips="1" connect="1" arrows="1" fold="1" page="1" pageScale="1" pageWidth="827" pageHeight="1169" math="0" shadow="0">
      <root>
        <mxCell id="0" />
        <mxCell id="1" parent="0" />
        <mxCell id="gHHslsdXai0U1o_A-QYJ-1" value="&lt;font style=&quot;font-size: 22px;&quot;&gt;DB PASTELARIA&lt;/font&gt;" style="rounded=0;whiteSpace=wrap;html=1;" parent="1" vertex="1">
          <mxGeometry x="-100" y="60" width="210" height="40" as="geometry" />
        </mxCell>
        <mxCell id="gHHslsdXai0U1o_A-QYJ-7" style="edgeStyle=orthogonalEdgeStyle;rounded=0;orthogonalLoop=1;jettySize=auto;html=1;entryX=0.5;entryY=1;entryDx=0;entryDy=0;" parent="1" source="gHHslsdXai0U1o_A-QYJ-3" target="gHHslsdXai0U1o_A-QYJ-6" edge="1">
          <mxGeometry relative="1" as="geometry" />
        </mxCell>
        <mxCell id="gHHslsdXai0U1o_A-QYJ-20" style="edgeStyle=orthogonalEdgeStyle;rounded=0;orthogonalLoop=1;jettySize=auto;html=1;" parent="1" source="gHHslsdXai0U1o_A-QYJ-3" target="gHHslsdXai0U1o_A-QYJ-14" edge="1">
          <mxGeometry relative="1" as="geometry">
            <Array as="points">
              <mxPoint x="-20" y="350" />
              <mxPoint x="-20" y="610" />
              <mxPoint x="1070" y="610" />
            </Array>
          </mxGeometry>
        </mxCell>
        <mxCell id="gHHslsdXai0U1o_A-QYJ-3" value="FUNCIONARIOS" style="rounded=0;whiteSpace=wrap;html=1;" parent="1" vertex="1">
          <mxGeometry x="30" y="320" width="120" height="60" as="geometry" />
        </mxCell>
        <mxCell id="gHHslsdXai0U1o_A-QYJ-8" style="edgeStyle=orthogonalEdgeStyle;rounded=0;orthogonalLoop=1;jettySize=auto;html=1;entryX=0.5;entryY=1;entryDx=0;entryDy=0;" parent="1" source="gHHslsdXai0U1o_A-QYJ-5" target="gHHslsdXai0U1o_A-QYJ-3" edge="1">
          <mxGeometry relative="1" as="geometry" />
        </mxCell>
        <mxCell id="gHHslsdXai0U1o_A-QYJ-5" value="ADMINISTRADOR" style="rounded=0;whiteSpace=wrap;html=1;" parent="1" vertex="1">
          <mxGeometry x="30" y="420" width="120" height="60" as="geometry" />
        </mxCell>
        <mxCell id="gHHslsdXai0U1o_A-QYJ-6" value="USUÁRIOS" style="rounded=0;whiteSpace=wrap;html=1;" parent="1" vertex="1">
          <mxGeometry x="30" y="220" width="120" height="60" as="geometry" />
        </mxCell>
        <mxCell id="gHHslsdXai0U1o_A-QYJ-10" style="edgeStyle=orthogonalEdgeStyle;rounded=0;orthogonalLoop=1;jettySize=auto;html=1;entryX=1;entryY=0.5;entryDx=0;entryDy=0;" parent="1" source="gHHslsdXai0U1o_A-QYJ-9" target="gHHslsdXai0U1o_A-QYJ-6" edge="1">
          <mxGeometry relative="1" as="geometry">
            <Array as="points">
              <mxPoint x="250" y="250" />
            </Array>
          </mxGeometry>
        </mxCell>
        <mxCell id="gHHslsdXai0U1o_A-QYJ-12" style="edgeStyle=orthogonalEdgeStyle;rounded=0;orthogonalLoop=1;jettySize=auto;html=1;entryX=0;entryY=0.5;entryDx=0;entryDy=0;" parent="1" source="gHHslsdXai0U1o_A-QYJ-9" target="gHHslsdXai0U1o_A-QYJ-11" edge="1">
          <mxGeometry relative="1" as="geometry">
            <Array as="points">
              <mxPoint x="290" y="210" />
            </Array>
          </mxGeometry>
        </mxCell>
        <mxCell id="gHHslsdXai0U1o_A-QYJ-9" value="FORNECEDORES" style="rounded=0;whiteSpace=wrap;html=1;" parent="1" vertex="1">
          <mxGeometry x="189" y="320" width="120" height="60" as="geometry" />
        </mxCell>
        <mxCell id="gHHslsdXai0U1o_A-QYJ-17" style="edgeStyle=orthogonalEdgeStyle;rounded=0;orthogonalLoop=1;jettySize=auto;html=1;entryX=0;entryY=0.5;entryDx=0;entryDy=0;" parent="1" source="gHHslsdXai0U1o_A-QYJ-11" target="gHHslsdXai0U1o_A-QYJ-16" edge="1">
          <mxGeometry relative="1" as="geometry" />
        </mxCell>
        <mxCell id="gHHslsdXai0U1o_A-QYJ-23" style="edgeStyle=orthogonalEdgeStyle;rounded=0;orthogonalLoop=1;jettySize=auto;html=1;" parent="1" source="gHHslsdXai0U1o_A-QYJ-11" target="gHHslsdXai0U1o_A-QYJ-22" edge="1">
          <mxGeometry relative="1" as="geometry" />
        </mxCell>
        <mxCell id="gHHslsdXai0U1o_A-QYJ-27" style="edgeStyle=orthogonalEdgeStyle;rounded=0;orthogonalLoop=1;jettySize=auto;html=1;entryX=0.5;entryY=1;entryDx=0;entryDy=0;" parent="1" source="gHHslsdXai0U1o_A-QYJ-11" target="gHHslsdXai0U1o_A-QYJ-26" edge="1">
          <mxGeometry relative="1" as="geometry">
            <Array as="points">
              <mxPoint x="220" y="190" />
            </Array>
          </mxGeometry>
        </mxCell>
        <mxCell id="gHHslsdXai0U1o_A-QYJ-29" style="edgeStyle=orthogonalEdgeStyle;rounded=0;orthogonalLoop=1;jettySize=auto;html=1;" parent="1" source="gHHslsdXai0U1o_A-QYJ-11" target="gHHslsdXai0U1o_A-QYJ-28" edge="1">
          <mxGeometry relative="1" as="geometry">
            <mxPoint x="380" y="110" as="targetPoint" />
            <Array as="points">
              <mxPoint x="400" y="146" />
              <mxPoint x="380" y="146" />
            </Array>
          </mxGeometry>
        </mxCell>
        <mxCell id="gHHslsdXai0U1o_A-QYJ-11" value="PRODUTOS" style="rounded=0;whiteSpace=wrap;html=1;" parent="1" vertex="1">
          <mxGeometry x="360" y="180" width="120" height="60" as="geometry" />
        </mxCell>
        <mxCell id="gHHslsdXai0U1o_A-QYJ-21" style="edgeStyle=orthogonalEdgeStyle;rounded=0;orthogonalLoop=1;jettySize=auto;html=1;entryX=1;entryY=0.5;entryDx=0;entryDy=0;" parent="1" source="gHHslsdXai0U1o_A-QYJ-13" target="gHHslsdXai0U1o_A-QYJ-14" edge="1">
          <mxGeometry relative="1" as="geometry" />
        </mxCell>
        <mxCell id="gHHslsdXai0U1o_A-QYJ-13" value="MESAS" style="rounded=0;whiteSpace=wrap;html=1;" parent="1" vertex="1">
          <mxGeometry x="1180" y="170" width="116" height="60" as="geometry" />
        </mxCell>
        <mxCell id="gHHslsdXai0U1o_A-QYJ-19" style="edgeStyle=orthogonalEdgeStyle;rounded=0;orthogonalLoop=1;jettySize=auto;html=1;entryX=1;entryY=0.5;entryDx=0;entryDy=0;" parent="1" source="gHHslsdXai0U1o_A-QYJ-14" target="gHHslsdXai0U1o_A-QYJ-15" edge="1">
          <mxGeometry relative="1" as="geometry">
            <Array as="points">
              <mxPoint x="1060" y="210" />
            </Array>
          </mxGeometry>
        </mxCell>
        <mxCell id="lBYadOu_RB3MjAM7Fjnc-3" style="edgeStyle=orthogonalEdgeStyle;rounded=0;orthogonalLoop=1;jettySize=auto;html=1;entryX=0;entryY=0.5;entryDx=0;entryDy=0;" edge="1" parent="1" source="gHHslsdXai0U1o_A-QYJ-14" target="lBYadOu_RB3MjAM7Fjnc-1">
          <mxGeometry relative="1" as="geometry">
            <Array as="points">
              <mxPoint x="1110" y="510" />
            </Array>
          </mxGeometry>
        </mxCell>
        <mxCell id="gHHslsdXai0U1o_A-QYJ-14" value="COMANDAS" style="rounded=0;whiteSpace=wrap;html=1;" parent="1" vertex="1">
          <mxGeometry x="1010" y="320" width="120" height="60" as="geometry" />
        </mxCell>
        <mxCell id="gHHslsdXai0U1o_A-QYJ-18" style="edgeStyle=orthogonalEdgeStyle;rounded=0;orthogonalLoop=1;jettySize=auto;html=1;entryX=1;entryY=0.5;entryDx=0;entryDy=0;" parent="1" source="gHHslsdXai0U1o_A-QYJ-15" target="gHHslsdXai0U1o_A-QYJ-16" edge="1">
          <mxGeometry relative="1" as="geometry" />
        </mxCell>
        <mxCell id="gHHslsdXai0U1o_A-QYJ-15" value="PEDIDO" style="rounded=0;whiteSpace=wrap;html=1;" parent="1" vertex="1">
          <mxGeometry x="840" y="180" width="120" height="60" as="geometry" />
        </mxCell>
        <mxCell id="gHHslsdXai0U1o_A-QYJ-16" value="PEDIDO&lt;br&gt;PRODUTOS" style="rounded=0;whiteSpace=wrap;html=1;" parent="1" vertex="1">
          <mxGeometry x="600" y="180" width="120" height="60" as="geometry" />
        </mxCell>
        <mxCell id="gHHslsdXai0U1o_A-QYJ-25" style="edgeStyle=orthogonalEdgeStyle;rounded=0;orthogonalLoop=1;jettySize=auto;html=1;entryX=0.5;entryY=1;entryDx=0;entryDy=0;" parent="1" source="gHHslsdXai0U1o_A-QYJ-22" target="gHHslsdXai0U1o_A-QYJ-24" edge="1">
          <mxGeometry relative="1" as="geometry" />
        </mxCell>
        <mxCell id="gHHslsdXai0U1o_A-QYJ-22" value="SALGADOS" style="rounded=0;whiteSpace=wrap;html=1;" parent="1" vertex="1">
          <mxGeometry x="480" y="50" width="120" height="60" as="geometry" />
        </mxCell>
        <mxCell id="gHHslsdXai0U1o_A-QYJ-24" value="PASTEIS" style="rounded=0;whiteSpace=wrap;html=1;" parent="1" vertex="1">
          <mxGeometry x="480" y="-70" width="120" height="60" as="geometry" />
        </mxCell>
        <mxCell id="gHHslsdXai0U1o_A-QYJ-26" value="DOCES" style="rounded=0;whiteSpace=wrap;html=1;" parent="1" vertex="1">
          <mxGeometry x="160" y="60" width="120" height="60" as="geometry" />
        </mxCell>
        <mxCell id="gHHslsdXai0U1o_A-QYJ-28" value="BEBIDAS" style="rounded=0;whiteSpace=wrap;html=1;" parent="1" vertex="1">
          <mxGeometry x="320" y="40" width="120" height="60" as="geometry" />
        </mxCell>
        <mxCell id="lBYadOu_RB3MjAM7Fjnc-1" value="PAGAMENTOS" style="rounded=0;whiteSpace=wrap;html=1;" vertex="1" parent="1">
          <mxGeometry x="1176" y="480" width="120" height="60" as="geometry" />
        </mxCell>
      </root>
    </mxGraphModel>
  </diagram>
</mxfile>
